<svg width="27" height="27" viewBox="0 0 27 27" fill="none" xmlns="http://www.w3.org/2000/svg">
<g clip-path="url(#clip0_633_80)">
<path d="M17.7272 12.6288H14.8141L14.5019 13.114V14.2805H17.7272V14.2847V15.7001V15.9363H14.5019V18.4338H12.498V15.9363H9.2728V15.7001V14.2847V14.2805H12.498V13.1161L12.1858 12.6288H9.2728V11.2134H11.2746L9.57233 8.56616H11.2704L13.5 12.034L15.7296 8.56616H17.4255L15.7254 11.2134H17.7272V12.6288Z" fill="black"/>
<path d="M13.5 3.375C19.0835 3.375 23.625 7.91648 23.625 13.5C23.625 19.0835 19.0835 23.625 13.5 23.625C7.91858 23.625 3.37498 19.0835 3.37498 13.5C3.37498 7.91648 7.91858 3.375 13.5 3.375ZM13.5 0C6.04334 0 -1.52588e-05 6.04547 -1.52588e-05 13.5C-1.52588e-05 20.9566 6.04334 27 13.5 27C20.9545 27 27 20.9566 27 13.5C27 6.04547 20.9545 0 13.5 0Z" fill="black"/>
</g>
<defs>
<clipPath id="clip0_633_80">
<rect width="27" height="27" fill="white"/>
</clipPath>
</defs>
</svg>