<?xml version="1.0" encoding="utf-8"?>
<!-- Generator: Adobe Illustrator 25.1.0, SVG Export Plug-In . SVG Version: 6.00 Build 0)  -->
<svg version="1.1" id="レイヤー_1" xmlns="http://www.w3.org/2000/svg" xmlns:xlink="http://www.w3.org/1999/xlink" x="0px"
	 y="0px" viewBox="0 0 214.8 38.9" style="enable-background:new 0 0 214.8 38.9;" xml:space="preserve">
<path d="M9.9,19l-3.1-7.1H4.5V19H0V0.3h7c4.3,0,7.1,2,7.1,5.9c0.2,2.1-1,4.1-3,5l3.8,7.9H9.9z M6.5,8.1c1.8,0,3.1-0.2,3.1-2
	S8.3,4,6.5,4h-2v4.1H6.5z"/>
<path d="M21.7,19h-4.5V0.3h4.5V19z"/>
<path d="M28.5,0.3l3.5,11.3l3.5-11.3h4.9L34,19h-4L23.5,0.3H28.5z"/>
<path d="M53.8,0.3V4h-7.3v3.4H53v3.7h-6.5v4.1h7.3V19H42V0.3H53.8z"/>
<path d="M66,19l-3.1-7.1h-2.3V19h-4.5V0.3h7c4.3,0,7.1,2,7.1,5.9c0.2,2.1-1,4.1-3,5L71,19H66z M62.6,8.1c1.8,0,3.1-0.2,3.1-2
	S64.4,4,62.6,4h-2v4.1H62.6z"/>
<path d="M79.5,0.3c4.4,0,7,1.5,7,4.9c0.1,1.6-0.8,3.1-2.1,3.9c1.8,0.8,2.9,2.6,2.7,4.5c0,3-2,5.4-7,5.4H73V0.3H79.5z M77.5,7.4h1.9
	c1.8,0,2.6-0.6,2.6-1.7S81.4,4,79,4h-1.5L77.5,7.4z M77.5,15.2h2.1c2,0,3-0.7,3-2.1s-1-2-3.3-2h-1.9L77.5,15.2z"/>
<path d="M101.3,0.3V4H94v3.4h6.5v3.7H94v4.1h7.3V19H89.5V0.3H101.3z"/>
<path d="M103.6,19V0.3h7c4.2,0,7.4,2.1,7.4,8V11c0,5.8-3.1,8-7.4,8H103.6z M113.5,11V8.3c0-2.5-0.6-4.2-2.9-4.2h-2.5v11.2h2.5
	C112.9,15.2,113.4,13.5,113.5,11z"/>
<path d="M137.1,6c-0.1-1.3-1.3-2.3-2.6-2.3c-1.9,0-2.9,1.4-2.9,4.4V11c0,2.9,1,4.4,2.9,4.4c1.3,0.1,2.5-0.9,2.6-2.2c0,0,0-0.1,0-0.1
	h4.3c-0.6,4.2-2.9,6-6.9,6c-4.2,0-7.4-2.6-7.4-8.1V8.1c0-5.6,3.1-8.1,7.4-8.1c3.7,0,6.2,2,6.9,6H137.1z"/>
<path d="M150.8,19.2c-4.2,0-7.4-2.6-7.4-8.1V8.1c0-5.6,3.1-8.1,7.4-8.1s7.4,2.5,7.4,8.1v2.9C158.1,16.6,155,19.2,150.8,19.2z
	 M147.9,11.1c0,3.1,1,4.4,2.9,4.4s2.9-1.4,2.9-4.4V8.1c0-3.1-1-4.4-2.9-4.4s-2.9,1.3-2.9,4.4V11.1z"/>
<path d="M172.8,0.3V4h-7.3v3.8h6.5v3.7h-6.5V19H161V0.3H172.8z"/>
<path d="M186.8,0.3V4h-7.3v3.8h6.5v3.7h-6.5V19H175V0.3H186.8z"/>
<path d="M200.7,0.3V4h-7.3v3.4h6.5v3.7h-6.5v4.1h7.3V19h-11.8V0.3H200.7z"/>
<path d="M214.8,0.3V4h-7.3v3.4h6.5v3.7h-6.5v4.1h7.3V19H203V0.3H214.8z"/>
<path d="M3.9,25c3.1,0,4.6,1.2,4.6,3.5c0,1.5-1,2.8-2.5,3.1C7.8,31.8,9,33.3,9,35c0,1.8-1.2,3.7-4.5,3.7H0V25H3.9z M0.6,31.3h3.7
	c2.5,0,3.6-1.4,3.6-2.8s-0.8-2.8-4-2.8H0.6V31.3z M0.6,38.1h3.8c2.7,0,3.9-1.4,3.9-3.1c0-2-1.4-3.1-4.4-3.1H0.6V38.1z"/>
<path d="M22.5,38.7l-3.2-6c-0.4,0.1-0.8,0.1-1.2,0.1h-3.6v5.9h-0.6V25H18c3,0,4.8,1.4,4.8,3.9c0.1,1.8-1.2,3.4-3,3.7l3.3,6.1
	L22.5,38.7z M18,32.3c2.5,0,4.2-0.9,4.2-3.3s-1.7-3.3-4.2-3.3h-3.6v6.7H18z"/>
<path d="M35.7,25v0.6h-7.3v5.7h6.7V32h-6.7v6.2h7.3v0.6h-7.9V25H35.7z"/>
<path d="M39.6,25l3.1,12.8L46.4,25H47l3.7,12.8L53.8,25h0.6l-3.4,13.8h-0.7l-3.6-12.6l-3.6,12.6h-0.7L39,25H39.6z"/>
<path d="M66.4,25v0.6h-7.3v5.7h6.7V32h-6.7v6.2h7.3v0.6h-7.9V25H66.4z"/>
<path d="M80,38.7l-3.2-6c-0.4,0.1-0.8,0.1-1.2,0.1H72v5.9h-0.6V25h4.2c3,0,4.8,1.4,4.8,3.9c0.1,1.8-1.2,3.4-2.9,3.7l3.3,6.1L80,38.7
	z M75.5,32.3c2.5,0,4.2-0.9,4.2-3.3s-1.7-3.3-4.2-3.3H72v6.7H75.5z"/>
<path d="M94.3,31c-0.9-0.9-1.5-2.1-1.5-3.3c-0.1-1.4,1-2.7,2.4-2.8c0.1,0,0.2,0,0.3,0c1.3-0.2,2.4,0.7,2.6,2c0,0.1,0,0.3,0,0.4
	c0,1.7-1.4,2.7-2.9,3.8l4.2,4.9c0.6-1.1,0.9-2.3,0.9-3.6h0.6c0,1.4-0.4,2.8-1.1,4l2,2.3H101l-1.6-1.8c-0.9,1.2-2.4,2-3.9,2
	c-2.8,0-4.1-1.9-4.1-3.7S92.8,32.1,94.3,31z M99.1,36.5l-4.4-5c-1.4,1-2.7,2.1-2.7,3.7c0,1.9,1.4,3.1,3.5,3.1
	C97,38.3,98.3,37.6,99.1,36.5L99.1,36.5z M94.8,30.7c1.4-1,2.7-1.9,2.7-3.3c0.1-1-0.7-1.8-1.6-1.8c-0.1,0-0.2,0-0.4,0
	c-1.1-0.1-2.1,0.8-2.1,1.9c0,0.1,0,0.2,0,0.3C93.5,28.8,94,29.9,94.8,30.7L94.8,30.7z"/>
<path d="M122.7,38.7l-3.2-6c-0.4,0.1-0.8,0.1-1.2,0.1h-3.6v5.9H114V25h4.2c3,0,4.8,1.4,4.8,3.9c0.1,1.8-1.2,3.4-3,3.7l3.3,6.1H122.7
	z M118.2,32.3c2.5,0,4.2-0.9,4.2-3.3s-1.7-3.3-4.2-3.3h-3.6v6.7H118.2z"/>
<path d="M132.1,38.9c-2.8,0-4.8-1.8-4.8-6.1V31c0-4.2,1.9-6.1,4.8-6.1s4.8,1.9,4.8,6.1v1.8C136.9,37,134.9,38.9,132.1,38.9z
	 M127.9,32.8c0,4,1.8,5.5,4.2,5.5s4.2-1.5,4.2-5.5V31c0-4-1.8-5.5-4.2-5.5s-4.2,1.5-4.2,5.5V32.8z"/>
<path d="M140.3,38.7L145,25h0.6l4.6,13.7h-0.6l-1.2-3.5h-6.1l-1.2,3.6H140.3z M142.3,34.6h5.7l-2.9-8.5L142.3,34.6z"/>
<path d="M161.9,27.5c-0.8-1.4-2.3-2.1-3.9-2c-2.2,0-3.6,0.9-3.6,2.8c0,2.3,1.9,2.8,3.9,3.3c2.5,0.7,4.3,1.3,4.3,4
	c0,1.7-1.3,3.3-4.4,3.3c-1.9,0.1-3.6-0.7-4.7-2.2l0.5-0.3c1,1.4,2.6,2.1,4.2,2c2.6,0,3.8-1.2,3.8-2.7c0-2-1.2-2.8-3.8-3.4
	s-4.4-1.4-4.4-3.9c0-1.9,1.2-3.4,4.2-3.4c1.8-0.1,3.4,0.7,4.3,2.2L161.9,27.5z"/>
<path d="M175.6,25v0.6h-4.5v13.1h-0.6V25.6H166V25H175.6z"/>
<path d="M187.7,25v0.6h-7.3v5.7h6.7V32h-6.7v6.2h7.3v0.6h-7.9V25H187.7z"/>
<path d="M201.3,38.7l-3.2-6c-0.4,0.1-0.8,0.1-1.2,0.1h-3.6v5.9h-0.6V25h4.2c3,0,4.8,1.4,4.8,3.9c0.1,1.8-1.2,3.4-2.9,3.7l3.3,6.1
	H201.3z M196.9,32.3c2.5,0,4.2-0.9,4.2-3.3s-1.7-3.3-4.2-3.3h-3.6v6.7H196.9z"/>
<path d="M205.7,25l4.2,7l4.2-7h0.7l-4.6,7.6v6.1h-0.6v-6.1L205,25H205.7z"/>
</svg>
