<svg width="20" height="25" viewBox="0 0 20 25" fill="none" xmlns="http://www.w3.org/2000/svg">
<path d="M3.74998 7C3.74998 3.54822 6.54821 0.75 9.99998 0.75C13.4518 0.75 16.25 3.54822 16.25 7C16.25 10.4518 13.4518 13.25 9.99998 13.25C6.54821 13.25 3.74998 10.4518 3.74998 7ZM9.99998 10.75C12.0711 10.75 13.75 9.07107 13.75 7C13.75 4.92893 12.0711 3.25 9.99998 3.25C7.92892 3.25 6.24998 4.92893 6.24998 7C6.24998 9.07107 7.92892 10.75 9.99998 10.75Z" fill="black"/>
<path d="M2.92892 17.4289C1.05355 19.3043 -1.52588e-05 21.8478 -1.52588e-05 24.5H2.49998C2.49998 22.5109 3.29016 20.6032 4.69668 19.1967C6.10321 17.7902 8.01086 17 9.99998 17C11.9891 17 13.8968 17.7902 15.3033 19.1967C16.7098 20.6032 17.5 22.5109 17.5 24.5H20C20 21.8478 18.9464 19.3043 17.0711 17.4289C15.1957 15.5536 12.6521 14.5 9.99998 14.5C7.34782 14.5 4.80428 15.5536 2.92892 17.4289Z" fill="black"/>
</svg>
